<svg width="20" height="14" viewBox="0 0 20 14" fill="none" xmlns="http://www.w3.org/2000/svg">
<g clip-path="url(#clip0_2043_59)">
<path d="M1.48608 3.96495C1.65408 3.98495 1.82608 3.99795 2.00008 3.99995C2.79008 4.00895 3.53908 3.82195 4.00008 3.49995C4.46108 3.17995 5.21008 2.99295 6.00008 2.99995C6.79008 2.99295 7.53908 3.17995 8.00008 3.49995C8.46108 3.82195 9.21008 4.00895 10.0001 3.99995C10.7901 4.00895 11.5391 3.82195 12.0001 3.49995C12.4611 3.17995 13.2101 2.99295 14.0001 2.99995C14.7901 2.99295 15.5391 3.17995 16.0001 3.49995C16.4611 3.82195 17.2101 4.00895 18.0001 3.99995C18.1701 3.99995 18.3391 3.98595 18.5031 3.96595" stroke="#063A46" stroke-width="2" stroke-linecap="round" stroke-linejoin="round"/>
<path d="M1 1L2.721 11.329C2.79888 11.796 3.0399 12.2202 3.40118 12.5262C3.76245 12.8322 4.22056 13.0001 4.694 13H15.306C15.7794 13.0001 16.2375 12.8322 16.5988 12.5262C16.9601 12.2202 17.2011 11.796 17.279 11.329L19 1" stroke="#063A46" stroke-width="2" stroke-linecap="round" stroke-linejoin="round"/>
</g>
<defs>
<clipPath id="clip0_2043_59">
<rect width="20" height="14" fill="white"/>
</clipPath>
</defs>
</svg>
