<svg width="20" height="18" viewBox="0 0 20 18" fill="none" xmlns="http://www.w3.org/2000/svg">
<g clip-path="url(#clip0_2043_17)">
<path d="M8 11C8 11.5304 8.21071 12.0391 8.58579 12.4142C8.96086 12.7893 9.46957 13 10 13C10.5304 13 11.0391 12.7893 11.4142 12.4142C11.7893 12.0391 12 11.5304 12 11C12 10.4696 11.7893 9.96086 11.4142 9.58579C11.0391 9.21071 10.5304 9 10 9C9.46957 9 8.96086 9.21071 8.58579 9.58579C8.21071 9.96086 8 10.4696 8 11Z" stroke="#063A46" stroke-width="2" stroke-linecap="round" stroke-linejoin="round"/>
<path d="M3.00097 5H17C17.2883 4.99997 17.5733 5.06229 17.8353 5.1827C18.0974 5.30311 18.3302 5.47876 18.518 5.6976C18.7058 5.91645 18.844 6.17331 18.9233 6.45059C19.0025 6.72786 19.0208 7.01898 18.977 7.304L17.722 14.456C17.613 15.1644 17.254 15.8105 16.71 16.2771C16.1659 16.7438 15.4727 17.0002 14.756 17H5.24397C4.52737 17 3.83445 16.7434 3.2906 16.2768C2.74675 15.8102 2.38789 15.1643 2.27897 14.456L1.02397 7.304C0.98014 7.01898 0.99846 6.72786 1.07768 6.45059C1.15689 6.17331 1.29513 5.91645 1.48292 5.6976C1.6707 5.47876 1.90359 5.30311 2.16561 5.1827C2.42764 5.06229 2.7126 4.99997 3.00097 5Z" stroke="#063A46" stroke-width="2" stroke-linecap="round" stroke-linejoin="round"/>
<path d="M15 7L13 1" stroke="#063A46" stroke-width="2" stroke-linecap="round" stroke-linejoin="round"/>
<path d="M5 7L7 1" stroke="#063A46" stroke-width="2" stroke-linecap="round" stroke-linejoin="round"/>
</g>
<defs>
<clipPath id="clip0_2043_17">
<rect width="20" height="18" fill="white"/>
</clipPath>
</defs>
</svg>
