<svg width="21" height="21" viewBox="0 0 21 21" fill="none" xmlns="http://www.w3.org/2000/svg">
<g clip-path="url(#clip0_2047_3)">
<path d="M1 19.5L2.65 15.7C1.38766 13.908 0.822667 11.717 1.06104 9.53807C1.29942 7.35915 2.32479 5.34211 3.94471 3.86549C5.56463 2.38887 7.66775 1.55418 9.85938 1.51807C12.051 1.48195 14.1805 2.2469 15.8482 3.66934C17.5159 5.09179 18.6071 7.07395 18.9172 9.24384C19.2272 11.4137 18.7347 13.6222 17.5321 15.4547C16.3295 17.2873 14.4994 18.618 12.3854 19.1971C10.2713 19.7762 8.01863 19.5639 6.05 18.6L1 19.5Z" stroke="#EBFFFE" stroke-width="2" stroke-linecap="round" stroke-linejoin="round"/>
<path d="M7 8.5C7 8.63261 7.05268 8.75979 7.14645 8.85355C7.24021 8.94732 7.36739 9 7.5 9C7.63261 9 7.75979 8.94732 7.85355 8.85355C7.94732 8.75979 8 8.63261 8 8.5V7.5C8 7.36739 7.94732 7.24021 7.85355 7.14645C7.75979 7.05268 7.63261 7 7.5 7C7.36739 7 7.24021 7.05268 7.14645 7.14645C7.05268 7.24021 7 7.36739 7 7.5V8.5ZM7 8.5C7 9.82608 7.52678 11.0979 8.46447 12.0355C9.40215 12.9732 10.6739 13.5 12 13.5M12 13.5H13C13.1326 13.5 13.2598 13.4473 13.3536 13.3536C13.4473 13.2598 13.5 13.1326 13.5 13C13.5 12.8674 13.4473 12.7402 13.3536 12.6464C13.2598 12.5527 13.1326 12.5 13 12.5H12C11.8674 12.5 11.7402 12.5527 11.6464 12.6464C11.5527 12.7402 11.5 12.8674 11.5 13C11.5 13.1326 11.5527 13.2598 11.6464 13.3536C11.7402 13.4473 11.8674 13.5 12 13.5Z" stroke="#EBFFFE" stroke-width="2" stroke-linecap="round" stroke-linejoin="round"/>
</g>
<defs>
<clipPath id="clip0_2047_3">
<rect width="21" height="21" fill="white"/>
</clipPath>
</defs>
</svg>
