<svg width="39" height="38" viewBox="0 0 39 38" fill="none" xmlns="http://www.w3.org/2000/svg">
<g clip-path="url(#clip0_2046_201)">
<path d="M19.5 13L3.558 21.856C2.93412 22.2025 2.41429 22.7095 2.05242 23.3246C1.69054 23.9397 1.49981 24.6404 1.5 25.354V27C1.5 28.0609 1.92143 29.0783 2.67157 29.8284C3.42172 30.5786 4.43913 31 5.5 31H7.5" stroke="#063A46" stroke-width="2" stroke-linecap="round" stroke-linejoin="round"/>
<path d="M31.5 31H33.5C34.5609 31 35.5783 30.5786 36.3284 29.8284C37.0786 29.0783 37.5 28.0609 37.5 27V25.354C37.5002 24.6404 37.3095 23.9397 36.9476 23.3246C36.5857 22.7095 36.0659 22.2025 35.442 21.856L19.5 13C16.586 11.38 15.514 8.334 15.5 5C15.5 3.93913 15.9214 2.92172 16.6716 2.17157C17.4217 1.42143 18.4391 1 19.5 1C20.5609 1 21.5783 1.42143 22.3284 2.17157C23.0786 2.92172 23.5 3.93913 23.5 5" stroke="#063A46" stroke-width="2" stroke-linecap="round" stroke-linejoin="round"/>
<path d="M7.5 31C7.5 29.9391 7.92143 28.9217 8.67157 28.1716C9.42172 27.4214 10.4391 27 11.5 27H27.5C28.5609 27 29.5783 27.4214 30.3284 28.1716C31.0786 28.9217 31.5 29.9391 31.5 31V33C31.5 34.0609 31.0786 35.0783 30.3284 35.8284C29.5783 36.5786 28.5609 37 27.5 37H11.5C10.4391 37 9.42172 36.5786 8.67157 35.8284C7.92143 35.0783 7.5 34.0609 7.5 33V31Z" stroke="#063A46" stroke-width="2" stroke-linecap="round" stroke-linejoin="round"/>
</g>
<defs>
<clipPath id="clip0_2046_201">
<rect width="39" height="38" fill="white"/>
</clipPath>
</defs>
</svg>
