<svg width="20" height="16" viewBox="0 0 20 16" fill="none" xmlns="http://www.w3.org/2000/svg">
<g clip-path="url(#clip0_2043_73)">
<path d="M14.5 13C14.5 13.5304 14.7107 14.0391 15.0858 14.4142C15.4609 14.7893 15.9696 15 16.5 15C17.0304 15 17.5391 14.7893 17.9142 14.4142C18.2893 14.0391 18.5 13.5304 18.5 13C18.5 12.4696 18.2893 11.9609 17.9142 11.5858C17.5391 11.2107 17.0304 11 16.5 11C15.9696 11 15.4609 11.2107 15.0858 11.5858C14.7107 11.9609 14.5 12.4696 14.5 13Z" stroke="#063A46" stroke-width="2" stroke-linecap="round" stroke-linejoin="round"/>
<path d="M3.5 12V13C3.5 13.5304 3.71071 14.0391 4.08579 14.4142C4.46086 14.7893 4.96957 15 5.5 15C6.03043 15 6.53914 14.7893 6.91421 14.4142C7.28929 14.0391 7.5 13.5304 7.5 13V8H4.5C3.70435 8 2.94129 8.31607 2.37868 8.87868C1.81607 9.44129 1.5 10.2044 1.5 11V12H11.5C11.8706 10.9292 12.5369 9.98515 13.4218 9.27726C14.3067 8.56937 15.3739 8.12653 16.5 8V3C16.5 2.46957 16.2893 1.96086 15.9142 1.58579C15.5391 1.21071 15.0304 1 14.5 1H13.5" stroke="#063A46" stroke-width="2" stroke-linecap="round" stroke-linejoin="round"/>
<path d="M4.5 5H7.5" stroke="#063A46" stroke-width="2" stroke-linecap="round" stroke-linejoin="round"/>
</g>
<defs>
<clipPath id="clip0_2043_73">
<rect width="19" height="16" fill="white" transform="translate(0.5)"/>
</clipPath>
</defs>
</svg>
