<svg width="18" height="21" viewBox="0 0 18 21" fill="none" xmlns="http://www.w3.org/2000/svg">
<g clip-path="url(#clip0_2046_166)">
<path d="M6 9.5C6 10.2956 6.31607 11.0587 6.87868 11.6213C7.44129 12.1839 8.20435 12.5 9 12.5C9.79565 12.5 10.5587 12.1839 11.1213 11.6213C11.6839 11.0587 12 10.2956 12 9.5C12 8.70435 11.6839 7.94129 11.1213 7.37868C10.5587 6.81607 9.79565 6.5 9 6.5C8.20435 6.5 7.44129 6.81607 6.87868 7.37868C6.31607 7.94129 6 8.70435 6 9.5Z" stroke="#063A46" stroke-width="2" stroke-linecap="round" stroke-linejoin="round"/>
<path d="M14.657 15.1572L10.414 19.4002C10.039 19.7748 9.53059 19.9853 9.0005 19.9853C8.47042 19.9853 7.96202 19.7748 7.587 19.4002L3.343 15.1572C2.22422 14.0384 1.46234 12.6129 1.15369 11.0611C0.845043 9.50922 1.00349 7.90071 1.60901 6.43893C2.21452 4.97714 3.2399 3.72774 4.55548 2.8487C5.87107 1.96967 7.41777 1.50049 9 1.50049C10.5822 1.50049 12.1289 1.96967 13.4445 2.8487C14.7601 3.72774 15.7855 4.97714 16.391 6.43893C16.9965 7.90071 17.155 9.50922 16.8463 11.0611C16.5377 12.6129 15.7758 14.0384 14.657 15.1572Z" stroke="#063A46" stroke-width="2" stroke-linecap="round" stroke-linejoin="round"/>
</g>
<defs>
<clipPath id="clip0_2046_166">
<rect width="18" height="21" fill="white"/>
</clipPath>
</defs>
</svg>
