<svg width="167" height="43" viewBox="0 0 167 43" fill="none" xmlns="http://www.w3.org/2000/svg">
<g clip-path="url(#clip0_2037_5)">
<path d="M37.2628 43H2.73706C2.05355 43 1.39805 42.7201 0.91474 42.2219C0.431432 41.7237 0.159912 41.048 0.159912 40.3434V3.05123C0.159912 2.34667 0.431432 1.67095 0.91474 1.17275C1.39805 0.674545 2.05355 0.394657 2.73706 0.394657H37.2628C37.6012 0.394657 37.9363 0.463372 38.249 0.596877C38.5617 0.730383 38.8458 0.926064 39.0851 1.17275C39.3244 1.41944 39.5142 1.71229 39.6437 2.03461C39.7733 2.35692 39.8399 2.70237 39.8399 3.05123V40.3434C39.8399 40.6923 39.7733 41.0377 39.6437 41.3601C39.5142 41.6824 39.3244 41.9752 39.0851 42.2219C38.8458 42.4686 38.5617 42.6643 38.249 42.7978C37.9363 42.9313 37.6012 43 37.2628 43ZM2.73706 1.57274C2.35712 1.57429 1.99318 1.73056 1.72452 2.00749C1.45587 2.28443 1.30427 2.65959 1.30277 3.05123V40.3434C1.30277 40.7355 1.45388 41.1116 1.72286 41.3889C1.99184 41.6662 2.35666 41.8219 2.73706 41.8219H37.2628C37.6432 41.8219 38.008 41.6662 38.277 41.3889C38.5459 41.1116 38.6971 40.7355 38.6971 40.3434V3.05123C38.6955 2.65959 38.544 2.28443 38.2753 2.00749C38.0066 1.73056 37.6427 1.57429 37.2628 1.57274H2.73706Z" fill="#063A46"/>
<path d="M38.8691 8.24657H1.13111C0.982702 8.24657 0.840371 8.18451 0.73543 8.07405C0.630489 7.96358 0.571533 7.81376 0.571533 7.65753C0.571533 7.50131 0.630489 7.35149 0.73543 7.24102C0.840371 7.13055 0.982702 7.06849 1.13111 7.06849H38.8691C39.0175 7.06849 39.1598 7.13055 39.2648 7.24102C39.3697 7.35149 39.4287 7.50131 39.4287 7.65753C39.4287 7.81376 39.3697 7.96358 39.2648 8.07405C39.1598 8.18451 39.0175 8.24657 38.8691 8.24657Z" fill="#063A46"/>
<path d="M5.42857 5.89041C5.14585 5.8904 4.8695 5.80393 4.63449 5.64194C4.39947 5.47995 4.21637 5.24972 4.10837 4.9804C4.00036 4.71108 3.9723 4.41478 4.02774 4.12902C4.08318 3.84325 4.21963 3.58087 4.41982 3.37508C4.62 3.1693 4.87492 3.02937 5.15229 2.97301C5.42967 2.91665 5.71703 2.94639 5.978 3.05847C6.23896 3.17055 6.4618 3.35993 6.6183 3.60264C6.7748 3.84534 6.85792 4.13045 6.85714 4.42187C6.85714 4.61507 6.82016 4.80636 6.74832 4.9848C6.67648 5.16323 6.57119 5.3253 6.43848 5.46172C6.30577 5.59814 6.14826 5.70623 5.97496 5.77979C5.80166 5.85335 5.61598 5.89094 5.42857 5.89041ZM5.42857 3.76287C5.30212 3.76287 5.17852 3.80152 5.07339 3.87393C4.96825 3.94634 4.88631 4.04926 4.83793 4.16968C4.78954 4.2901 4.77688 4.4226 4.80155 4.55044C4.82621 4.67827 4.8871 4.7957 4.97651 4.88786C5.06592 4.98003 5.17983 5.04279 5.30384 5.06822C5.42786 5.09365 5.5564 5.0806 5.67322 5.03072C5.79004 4.98084 5.88988 4.89637 5.96013 4.788C6.03038 4.67963 6.06787 4.55221 6.06787 4.42187C6.06787 4.24709 6.00052 4.07947 5.88062 3.95588C5.76073 3.8323 5.59812 3.76287 5.42857 3.76287Z" fill="#063A46"/>
<path d="M10.4667 5.89041C10.1838 5.89121 9.90707 5.80542 9.67154 5.64392C9.43601 5.48242 9.25229 5.25247 9.14368 4.98322C9.03507 4.71398 9.00644 4.41755 9.06144 4.13151C9.11643 3.84548 9.25257 3.58271 9.4526 3.37652C9.65263 3.17033 9.90753 3.03 10.185 2.9733C10.4625 2.91661 10.7501 2.94612 11.0113 3.05808C11.2725 3.17004 11.4955 3.35942 11.6522 3.60221C11.8089 3.845 11.8921 4.13027 11.8913 4.42187C11.8913 4.81135 11.7412 5.18488 11.4741 5.46028C11.2069 5.73568 10.8445 5.89041 10.4667 5.89041ZM10.4667 3.76286C10.3401 3.76206 10.2161 3.80002 10.1104 3.87194C10.0048 3.94386 9.92224 4.0465 9.87325 4.16685C9.82425 4.28719 9.81103 4.41982 9.83525 4.54793C9.85947 4.67603 9.92004 4.79383 10.0093 4.8864C10.0985 4.97898 10.2124 5.04214 10.3366 5.0679C10.4607 5.09366 10.5894 5.08085 10.7065 5.0311C10.8235 4.98134 10.9236 4.89688 10.994 4.78842C11.0645 4.67996 11.102 4.55238 11.1021 4.42187C11.1021 4.24779 11.0352 4.08078 10.9162 3.95731C10.7972 3.83384 10.6356 3.76394 10.4667 3.76286Z" fill="#063A46"/>
<path d="M20.0001 37.1096C17.9796 37.112 16.0001 36.5222 14.2924 35.4091C12.5847 34.296 11.2191 32.7054 10.3549 30.8228C9.49068 28.9402 9.16344 26.8432 9.41133 24.7762C9.65922 22.7091 10.472 20.7574 11.755 19.1484C13.0379 17.5394 14.7382 16.3395 16.6574 15.6886C18.5767 15.0377 20.6359 14.9626 22.595 15.4721C24.5541 15.9816 26.3323 17.0547 27.7223 18.5663C29.1123 20.0778 30.0569 21.9655 30.4458 24.0093H32.1601C32.3116 24.0093 32.457 24.0714 32.5641 24.1818C32.6713 24.2923 32.7315 24.4421 32.7315 24.5984V28.1679C32.7315 28.3242 32.6713 28.474 32.5641 28.5845C32.457 28.6949 32.3116 28.757 32.1601 28.757H30.3487C29.774 31.1393 28.4434 33.2552 26.5684 34.7686C24.6934 36.282 22.3815 37.106 20.0001 37.1096ZM20.0001 16.3164C18.1987 16.3171 16.4346 16.8449 14.9128 17.8385C13.3911 18.832 12.1742 20.2505 11.4037 21.9289C10.6332 23.6073 10.3407 25.4767 10.5604 27.3197C10.78 29.1627 11.5026 30.9036 12.6443 32.3399C13.786 33.7761 15.2997 34.8488 17.0095 35.4332C18.7193 36.0175 20.5549 36.0895 22.3029 35.6408C24.0508 35.1921 25.6392 34.2411 26.8835 32.8984C28.1277 31.5557 28.9767 29.8765 29.3315 28.056C29.357 27.9199 29.4284 27.7974 29.5329 27.7101C29.6374 27.6228 29.7684 27.5764 29.9029 27.5789H31.6172V25.1874H29.9658C29.828 25.189 29.6943 25.1392 29.5892 25.0472C29.4842 24.9552 29.415 24.8272 29.3944 24.6867C29.0514 22.3677 27.9167 20.251 26.1945 18.7176C24.4723 17.1842 22.2757 16.3348 20.0001 16.3223V16.3164Z" fill="#063A46"/>
<path d="M27.5543 27.2255C26.9006 27.2391 26.2605 27.0323 25.7314 26.6364C25.394 26.3562 24.9703 26.2099 24.5371 26.2241C24.1026 26.2121 23.6778 26.358 23.3371 26.6364C22.804 27.0276 22.1658 27.2378 21.5114 27.2378C20.857 27.2378 20.2189 27.0276 19.6857 26.6364C19.3382 26.3692 18.9163 26.2248 18.4828 26.2248C18.0493 26.2248 17.6274 26.3692 17.28 26.6364C16.7489 27.0274 16.1126 27.2376 15.46 27.2376C14.8074 27.2376 14.1711 27.0274 13.64 26.6364C13.3021 26.3571 12.8787 26.2109 12.4457 26.2241C12.2941 26.2241 12.1488 26.162 12.0416 26.0516C11.9345 25.9411 11.8743 25.7913 11.8743 25.6351C11.8743 25.4788 11.9345 25.329 12.0416 25.2186C12.1488 25.1081 12.2941 25.046 12.4457 25.046C13.0996 25.0302 13.7404 25.2372 14.2686 25.6351C14.6133 25.9008 15.0323 26.0445 15.4628 26.0445C15.8934 26.0445 16.3123 25.9008 16.6571 25.6351C17.1903 25.2439 17.8284 25.0337 18.4828 25.0337C19.1372 25.0337 19.7754 25.2439 20.3086 25.6351C20.6487 25.9144 21.0739 26.0605 21.5086 26.0474C21.9448 26.0593 22.3714 25.9134 22.7143 25.6351C23.2438 25.24 23.8836 25.0332 24.5371 25.046C25.1914 25.028 25.8328 25.2352 26.36 25.6351C26.7001 25.9096 27.1224 26.0533 27.5543 26.0415C27.7058 26.0415 27.8512 26.1036 27.9583 26.214C28.0655 26.3245 28.1257 26.4743 28.1257 26.6305C28.1257 26.7868 28.0655 26.9366 27.9583 27.0471C27.8512 27.1575 27.7058 27.2196 27.5543 27.2196V27.2255Z" fill="#00C0CB"/>
<path d="M20 34.5237C18.3895 34.5237 16.8152 34.0314 15.4761 33.1091C14.137 32.1868 13.0933 30.8758 12.477 29.342C11.8607 27.8083 11.6995 26.1206 12.0136 24.4923C12.3278 22.8641 13.1034 21.3684 14.2422 20.1945C15.381 19.0206 16.8319 18.2212 18.4114 17.8973C19.991 17.5734 21.6283 17.7397 23.1162 18.375C24.6041 19.0103 25.8758 20.0861 26.7706 21.4665C27.6653 22.8469 28.1429 24.4697 28.1429 26.1299C28.1414 28.3556 27.283 30.4897 25.7562 32.0635C24.2295 33.6373 22.1592 34.5221 20 34.5237ZM20 18.9141C18.6156 18.9141 17.2622 19.3373 16.111 20.1302C14.9599 20.9231 14.0627 22.05 13.5329 23.3685C13.0031 24.687 12.8644 26.1379 13.1345 27.5376C13.4046 28.9373 14.0713 30.223 15.0503 31.2322C16.0293 32.2413 17.2765 32.9285 18.6344 33.207C19.9923 33.4854 21.3997 33.3425 22.6788 32.7963C23.9579 32.2502 25.0512 31.3253 25.8203 30.1387C26.5895 28.9521 27 27.557 27 26.1299C26.997 24.2171 26.2585 22.3835 24.9464 21.031C23.6343 19.6785 21.8556 18.9172 20 18.9141Z" fill="#063A46"/>
</g>
<path d="M49.66 25.86H54.14V28.5H46.24V14.46H49.66V25.86ZM55.0913 22.9C55.0913 21.7533 55.3046 20.7467 55.7313 19.88C56.1713 19.0133 56.7646 18.3467 57.5113 17.88C58.2579 17.4133 59.0913 17.18 60.0113 17.18C60.7979 17.18 61.4846 17.34 62.0713 17.66C62.6713 17.98 63.1313 18.4 63.4513 18.92V17.34H66.8713V28.5H63.4513V26.92C63.1179 27.44 62.6513 27.86 62.0513 28.18C61.4646 28.5 60.7779 28.66 59.9913 28.66C59.0846 28.66 58.2579 28.4267 57.5113 27.96C56.7646 27.48 56.1713 26.8067 55.7313 25.94C55.3046 25.06 55.0913 24.0467 55.0913 22.9ZM63.4513 22.92C63.4513 22.0667 63.2113 21.3933 62.7313 20.9C62.2646 20.4067 61.6913 20.16 61.0113 20.16C60.3313 20.16 59.7513 20.4067 59.2713 20.9C58.8046 21.38 58.5713 22.0467 58.5713 22.9C58.5713 23.7533 58.8046 24.4333 59.2713 24.94C59.7513 25.4333 60.3313 25.68 61.0113 25.68C61.6913 25.68 62.2646 25.4333 62.7313 24.94C63.2113 24.4467 63.4513 23.7733 63.4513 22.92ZM74.3655 25.3L76.7855 17.34H80.4255L76.4655 28.5H72.2455L68.2855 17.34H71.9455L74.3655 25.3ZM81.185 22.9C81.185 21.7533 81.3983 20.7467 81.825 19.88C82.265 19.0133 82.8583 18.3467 83.605 17.88C84.3517 17.4133 85.185 17.18 86.105 17.18C86.8917 17.18 87.5783 17.34 88.165 17.66C88.765 17.98 89.225 18.4 89.545 18.92V17.34H92.965V28.5H89.545V26.92C89.2117 27.44 88.745 27.86 88.145 28.18C87.5583 28.5 86.8717 28.66 86.085 28.66C85.1783 28.66 84.3517 28.4267 83.605 27.96C82.8583 27.48 82.265 26.8067 81.825 25.94C81.3983 25.06 81.185 24.0467 81.185 22.9ZM89.545 22.92C89.545 22.0667 89.305 21.3933 88.825 20.9C88.3583 20.4067 87.785 20.16 87.105 20.16C86.425 20.16 85.845 20.4067 85.365 20.9C84.8983 21.38 84.665 22.0467 84.665 22.9C84.665 23.7533 84.8983 24.4333 85.365 24.94C85.845 25.4333 86.425 25.68 87.105 25.68C87.785 25.68 88.3583 25.4333 88.825 24.94C89.305 24.4467 89.545 23.7733 89.545 22.92ZM94.7592 22.9C94.7592 21.7533 94.9726 20.7467 95.3992 19.88C95.8392 19.0133 96.4326 18.3467 97.1792 17.88C97.9259 17.4133 98.7592 17.18 99.6792 17.18C100.413 17.18 101.079 17.3333 101.679 17.64C102.293 17.9467 102.773 18.36 103.119 18.88V13.7H106.539V28.5H103.119V26.9C102.799 27.4333 102.339 27.86 101.739 28.18C101.153 28.5 100.466 28.66 99.6792 28.66C98.7592 28.66 97.9259 28.4267 97.1792 27.96C96.4326 27.48 95.8392 26.8067 95.3992 25.94C94.9726 25.06 94.7592 24.0467 94.7592 22.9ZM103.119 22.92C103.119 22.0667 102.879 21.3933 102.399 20.9C101.933 20.4067 101.359 20.16 100.679 20.16C99.9992 20.16 99.4192 20.4067 98.9392 20.9C98.4726 21.38 98.2392 22.0467 98.2392 22.9C98.2392 23.7533 98.4726 24.4333 98.9392 24.94C99.4192 25.4333 99.9992 25.68 100.679 25.68C101.359 25.68 101.933 25.4333 102.399 24.94C102.879 24.4467 103.119 23.7733 103.119 22.92ZM114.093 28.66C113 28.66 112.013 28.4267 111.133 27.96C110.267 27.4933 109.58 26.8267 109.073 25.96C108.58 25.0933 108.333 24.08 108.333 22.92C108.333 21.7733 108.587 20.7667 109.093 19.9C109.6 19.02 110.293 18.3467 111.173 17.88C112.053 17.4133 113.04 17.18 114.133 17.18C115.227 17.18 116.213 17.4133 117.093 17.88C117.973 18.3467 118.667 19.02 119.173 19.9C119.68 20.7667 119.933 21.7733 119.933 22.92C119.933 24.0667 119.673 25.08 119.153 25.96C118.647 26.8267 117.947 27.4933 117.053 27.96C116.173 28.4267 115.187 28.66 114.093 28.66ZM114.093 25.7C114.747 25.7 115.3 25.46 115.753 24.98C116.22 24.5 116.453 23.8133 116.453 22.92C116.453 22.0267 116.227 21.34 115.773 20.86C115.333 20.38 114.787 20.14 114.133 20.14C113.467 20.14 112.913 20.38 112.473 20.86C112.033 21.3267 111.813 22.0133 111.813 22.92C111.813 23.8133 112.027 24.5 112.453 24.98C112.893 25.46 113.44 25.7 114.093 25.7ZM125.168 19.2C125.568 18.5867 126.068 18.1067 126.668 17.76C127.268 17.4 127.934 17.22 128.668 17.22V20.84H127.728C126.874 20.84 126.234 21.0267 125.808 21.4C125.381 21.76 125.168 22.4 125.168 23.32V28.5H121.748V17.34H125.168V19.2ZM133.503 25.68H138.343V28.5H129.683V25.78L134.323 20.16H129.722V17.34H138.243V20.06L133.503 25.68ZM141.944 16.18C141.344 16.18 140.851 16.0067 140.464 15.66C140.091 15.3 139.904 14.86 139.904 14.34C139.904 13.8067 140.091 13.3667 140.464 13.02C140.851 12.66 141.344 12.48 141.944 12.48C142.531 12.48 143.011 12.66 143.384 13.02C143.771 13.3667 143.964 13.8067 143.964 14.34C143.964 14.86 143.771 15.3 143.384 15.66C143.011 16.0067 142.531 16.18 141.944 16.18ZM143.644 17.34V28.5H140.224V17.34H143.644ZM152.343 25.6V28.5H150.603C149.363 28.5 148.396 28.2 147.703 27.6C147.009 26.9867 146.663 25.9933 146.663 24.62V20.18H145.303V17.34H146.663V14.62H150.083V17.34H152.323V20.18H150.083V24.66C150.083 24.9933 150.163 25.2333 150.323 25.38C150.483 25.5267 150.749 25.6 151.123 25.6H152.343ZM153.568 22.9C153.568 21.7533 153.781 20.7467 154.208 19.88C154.648 19.0133 155.241 18.3467 155.988 17.88C156.734 17.4133 157.568 17.18 158.488 17.18C159.274 17.18 159.961 17.34 160.548 17.66C161.148 17.98 161.608 18.4 161.928 18.92V17.34H165.348V28.5H161.928V26.92C161.594 27.44 161.128 27.86 160.528 28.18C159.941 28.5 159.254 28.66 158.468 28.66C157.561 28.66 156.734 28.4267 155.988 27.96C155.241 27.48 154.648 26.8067 154.208 25.94C153.781 25.06 153.568 24.0467 153.568 22.9ZM161.928 22.92C161.928 22.0667 161.688 21.3933 161.208 20.9C160.741 20.4067 160.168 20.16 159.488 20.16C158.808 20.16 158.228 20.4067 157.748 20.9C157.281 21.38 157.048 22.0467 157.048 22.9C157.048 23.7533 157.281 24.4333 157.748 24.94C158.228 25.4333 158.808 25.68 159.488 25.68C160.168 25.68 160.741 25.4333 161.208 24.94C161.688 24.4467 161.928 23.7733 161.928 22.92Z" fill="#063A46"/>
<defs>
<clipPath id="clip0_2037_5">
<rect width="40" height="43" fill="white"/>
</clipPath>
</defs>
</svg>
